<?xml version="1.0" encoding="utf-8"?>
<!-- Generator: Adobe Illustrator 15.1.0, SVG Export Plug-In . SVG Version: 6.00 Build 0)  -->
<!DOCTYPE svg PUBLIC "-//W3C//DTD SVG 1.1//EN" "http://www.w3.org/Graphics/SVG/1.1/DTD/svg11.dtd">
<svg version="1.1" id="Layer_2" xmlns="http://www.w3.org/2000/svg" xmlns:xlink="http://www.w3.org/1999/xlink" x="0px" y="0px"
	 width="780px" height="780px" viewBox="0 0 780 780" style="enable-background:new 0 0 780 780;" xml:space="preserve">
<circle style="fill:#006FB9;" cx="198.8" cy="35" r="20"/>
<circle style="fill:#006FB9;" cx="144.2" cy="35" r="20"/>
<circle style="fill:#006FB9;" cx="90" cy="35" r="20"/>
<circle style="fill:#006FB9;" cx="35" cy="35" r="20"/>
<circle style="fill:#006FB9;" cx="253.5" cy="90" r="20"/>
<circle style="fill:#006FB9;" cx="198.8" cy="90" r="20"/>
<circle style="fill:#006FB9;" cx="144.2" cy="90" r="20"/>
<circle style="fill:#006FB9;" cx="90" cy="90" r="20"/>
<circle style="fill:#006FB9;" cx="35" cy="90" r="20"/>
<circle style="fill:#006FB9;" cx="253.5" cy="144.2" r="20"/>
<circle style="fill:#006FB9;" cx="198.8" cy="144.2" r="20"/>
<circle style="fill:#006FB9;" cx="144.2" cy="144.2" r="20"/>
<circle style="fill:#006FB9;" cx="90" cy="144.2" r="20"/>
<circle style="fill:#006FB9;" cx="35" cy="144.2" r="20"/>
<circle style="fill:#006FB9;" cx="253.5" cy="198.7" r="20"/>
<circle style="fill:#006FB9;" cx="198.8" cy="198.7" r="20"/>
<circle style="fill:#006FB9;" cx="144.2" cy="198.7" r="20"/>
<circle style="fill:#006FB9;" cx="90" cy="198.7" r="20"/>
<circle style="fill:#006FB9;" cx="35" cy="198.7" r="20"/>
<circle style="fill:#006FB9;" cx="253.5" cy="253.3" r="20"/>
<circle style="fill:#006FB9;" cx="198.8" cy="253.3" r="20"/>
<circle style="fill:#006FB9;" cx="144.2" cy="253.3" r="20"/>
<circle style="fill:#006FB9;" cx="90" cy="253.3" r="20"/>
<circle style="fill:#006FB9;" cx="35" cy="253.3" r="20"/>
<circle style="fill:#006FB9;" cx="253.5" cy="307.9" r="20"/>
<circle style="fill:#006FB9;" cx="198.8" cy="307.9" r="20"/>
<circle style="fill:#006FB9;" cx="144.2" cy="307.9" r="20"/>
<circle style="fill:#006FB9;" cx="90" cy="307.9" r="20"/>
<circle style="fill:#006FB9;" cx="35" cy="307.9" r="20"/>
<circle style="fill:#006FB9;" cx="253.5" cy="362.5" r="20"/>
<circle style="fill:#006FB9;" cx="198.8" cy="362.5" r="20"/>
<circle style="fill:#006FB9;" cx="144.2" cy="362.5" r="20"/>
<circle style="fill:#006FB9;" cx="90" cy="362.5" r="20"/>
<circle style="fill:#006FB9;" cx="35" cy="362.5" r="20"/>
<circle style="fill:#006FB9;" cx="253.5" cy="417" r="20"/>
<circle style="fill:#006FB9;" cx="198.8" cy="417" r="20"/>
<circle style="fill:#006FB9;" cx="144.2" cy="417" r="20"/>
<circle style="fill:#006FB9;" cx="90" cy="417" r="20"/>
<circle style="fill:#006FB9;" cx="35" cy="417" r="20"/>
<circle style="fill:#006FB9;" cx="198.8" cy="471.6" r="20"/>
<circle style="fill:#006FB9;" cx="144.2" cy="471.6" r="20"/>
<circle style="fill:#006FB9;" cx="90" cy="471.6" r="20"/>
<circle style="fill:#006FB9;" cx="35" cy="471.6" r="20"/>
<circle style="fill:#006FB9;" cx="35" cy="526.2" r="20"/>
<circle style="fill:#006FB9;" cx="253.5" cy="526.7" r="20"/>
<circle style="fill:#006FB9;" cx="198.8" cy="526.7" r="20"/>
<circle style="fill:#006FB9;" cx="144.2" cy="526.7" r="20"/>
<circle style="fill:#006FB9;" cx="90" cy="526.7" r="20"/>
<circle style="fill:#006FB9;" cx="253.5" cy="581.3" r="20"/>
<circle style="fill:#006FB9;" cx="362.5" cy="635.6" r="20"/>
<circle style="fill:#006FB9;" cx="417.5" cy="635.6" r="20"/>
<circle style="fill:#006FB9;" cx="308.5" cy="526.7" r="20"/>
<circle style="fill:#006FB9;" cx="308.5" cy="581.3" r="20"/>
<circle style="fill:#006FB9;" cx="471.5" cy="526.7" r="20"/>
<circle style="fill:#006FB9;" cx="471.5" cy="581.3" r="20"/>
<circle style="fill:#006FB9;" cx="198.8" cy="581.3" r="20"/>
<circle style="fill:#006FB9;" cx="144.2" cy="581.3" r="20"/>
<circle style="fill:#006FB9;" cx="90" cy="581.3" r="20"/>
<circle style="fill:#006FB9;" cx="35" cy="581.3" r="20"/>
<circle style="fill:#006FB9;" cx="308.1" cy="635.8" r="20"/>
<circle style="fill:#006FB9;" cx="253.5" cy="635.8" r="20"/>
<circle style="fill:#006FB9;" cx="198.8" cy="635.8" r="20"/>
<circle style="fill:#006FB9;" cx="144.2" cy="635.8" r="20"/>
<circle style="fill:#006FB9;" cx="90" cy="635.8" r="20"/>
<circle style="fill:#006FB9;" cx="35.4" cy="635.8" r="20"/>
<circle style="fill:#006FB9;" cx="362.7" cy="745" r="20"/>
<circle style="fill:#006FB9;" cx="308.1" cy="745" r="20"/>
<circle style="fill:#006FB9;" cx="253.5" cy="745" r="20"/>
<circle style="fill:#006FB9;" cx="198.8" cy="745" r="20"/>
<circle style="fill:#006FB9;" cx="144.2" cy="745" r="20"/>
<circle style="fill:#006FB9;" cx="362.7" cy="690.4" r="20"/>
<circle style="fill:#006FB9;" cx="308.1" cy="690.4" r="20"/>
<circle style="fill:#006FB9;" cx="253.5" cy="690.4" r="20"/>
<circle style="fill:#006FB9;" cx="198.8" cy="690.4" r="20"/>
<circle style="fill:#006FB9;" cx="144.2" cy="690.4" r="20"/>
<circle style="fill:#006FB9;" cx="89.6" cy="690.4" r="20"/>
<circle style="fill:#006FB9;" cx="253.5" cy="35" r="20"/>
<circle style="fill:#CB0F32;" cx="526.5" cy="35" r="20"/>
<circle style="fill:#CB0F32;" cx="581.2" cy="35" r="20"/>
<circle style="fill:#CB0F32;" cx="635.8" cy="35" r="20"/>
<circle style="fill:#CB0F32;" cx="690" cy="35" r="20"/>
<circle style="fill:#CB0F32;" cx="745" cy="35" r="20"/>
<circle style="fill:#CB0F32;" cx="526.5" cy="90" r="20"/>
<circle style="fill:#CB0F32;" cx="581.2" cy="90" r="20"/>
<circle style="fill:#CB0F32;" cx="635.8" cy="90" r="20"/>
<circle style="fill:#CB0F32;" cx="690" cy="90" r="20"/>
<circle style="fill:#CB0F32;" cx="745" cy="90" r="20"/>
<circle style="fill:#CB0F32;" cx="526.5" cy="144.2" r="20"/>
<circle style="fill:#CB0F32;" cx="581.2" cy="144.2" r="20"/>
<circle style="fill:#CB0F32;" cx="635.8" cy="144.2" r="20"/>
<circle style="fill:#CB0F32;" cx="690" cy="144.2" r="20"/>
<circle style="fill:#CB0F32;" cx="745" cy="144.2" r="20"/>
<circle style="fill:#CB0F32;" cx="526.5" cy="198.7" r="20"/>
<circle style="fill:#CB0F32;" cx="581.2" cy="198.7" r="20"/>
<circle style="fill:#CB0F32;" cx="635.8" cy="198.7" r="20"/>
<circle style="fill:#CB0F32;" cx="690" cy="198.7" r="20"/>
<circle style="fill:#CB0F32;" cx="745" cy="198.7" r="20"/>
<circle style="fill:#CB0F32;" cx="526.5" cy="253.3" r="20"/>
<circle style="fill:#CB0F32;" cx="581.2" cy="253.3" r="20"/>
<circle style="fill:#CB0F32;" cx="635.8" cy="253.3" r="20"/>
<circle style="fill:#CB0F32;" cx="690" cy="253.3" r="20"/>
<circle style="fill:#CB0F32;" cx="745" cy="253.3" r="20"/>
<circle style="fill:#CB0F32;" cx="526.5" cy="307.9" r="20"/>
<circle style="fill:#CB0F32;" cx="581.2" cy="307.9" r="20"/>
<circle style="fill:#CB0F32;" cx="635.8" cy="307.9" r="20"/>
<circle style="fill:#CB0F32;" cx="690" cy="307.9" r="20"/>
<circle style="fill:#CB0F32;" cx="745" cy="307.9" r="20"/>
<circle style="fill:#CB0F32;" cx="526.5" cy="362.5" r="20"/>
<circle style="fill:#CB0F32;" cx="581.2" cy="362.5" r="20"/>
<circle style="fill:#CB0F32;" cx="635.8" cy="362.5" r="20"/>
<circle style="fill:#CB0F32;" cx="690" cy="362.5" r="20"/>
<circle style="fill:#CB0F32;" cx="745" cy="362.5" r="20"/>
<circle style="fill:#CB0F32;" cx="526.5" cy="417" r="20"/>
<circle style="fill:#CB0F32;" cx="581.2" cy="417" r="20"/>
<circle style="fill:#CB0F32;" cx="635.8" cy="417" r="20"/>
<circle style="fill:#CB0F32;" cx="690" cy="417" r="20"/>
<circle style="fill:#CB0F32;" cx="745" cy="417" r="20"/>
<circle style="fill:#006FB9;" cx="253.5" cy="471.6" r="20"/>
<circle style="fill:#CB0F32;" cx="526.5" cy="471.6" r="20"/>
<circle style="fill:#CB0F32;" cx="581.2" cy="471.6" r="20"/>
<circle style="fill:#CB0F32;" cx="635.8" cy="471.6" r="20"/>
<circle style="fill:#CB0F32;" cx="690" cy="471.6" r="20"/>
<circle style="fill:#CB0F32;" cx="745" cy="471.6" r="20"/>
<circle style="fill:#CB0F32;" cx="745" cy="526.2" r="20"/>
<circle style="fill:#CB0F32;" cx="526.5" cy="526.7" r="20"/>
<circle style="fill:#CB0F32;" cx="581.2" cy="526.7" r="20"/>
<circle style="fill:#CB0F32;" cx="635.8" cy="526.7" r="20"/>
<circle style="fill:#CB0F32;" cx="690" cy="526.7" r="20"/>
<circle style="fill:#66A53D;" cx="526.5" cy="581.3" r="20"/>
<circle style="fill:#CB0F32;" cx="581.2" cy="581.3" r="20"/>
<circle style="fill:#CB0F32;" cx="635.8" cy="581.3" r="20"/>
<circle style="fill:#CB0F32;" cx="690" cy="581.3" r="20"/>
<circle style="fill:#CB0F32;" cx="745" cy="581.3" r="20"/>
<circle style="fill:#006FB9;" cx="471.9" cy="635.8" r="20"/>
<circle style="fill:#006FB9;" cx="526.5" cy="635.8" r="20"/>
<circle style="fill:#F7931E;" cx="581.2" cy="635.8" r="20"/>
<circle style="fill:#CB0F32;" cx="635.8" cy="635.8" r="20"/>
<circle style="fill:#CB0F32;" cx="690" cy="635.8" r="20"/>
<circle style="fill:#CB0F32;" cx="744.6" cy="635.8" r="20"/>
<circle style="fill:#006FB9;" cx="417.3" cy="745" r="20"/>
<circle style="fill:#006FB9;" cx="471.9" cy="745" r="20"/>
<circle style="fill:#006FB9;" cx="526.5" cy="745" r="20"/>
<circle style="fill:#006FB9;" cx="581.2" cy="745" r="20"/>
<circle style="fill:#006FB9;" cx="635.8" cy="745" r="20"/>
<circle style="fill:#006FB9;" cx="417.3" cy="690.4" r="20"/>
<circle style="fill:#006FB9;" cx="471.9" cy="690.4" r="20"/>
<circle style="fill:#006FB9;" cx="526.5" cy="690.4" r="20"/>
<circle style="fill:#006FB9;" cx="581.2" cy="690.4" r="20"/>
<circle style="fill:#F8E100;" cx="635.8" cy="690.4" r="20"/>
<circle style="fill:#999999;" cx="690.4" cy="690.4" r="20"/>
<g>
	<path d="M324.6,55.3c-2.1,0-4-0.4-5.7-1.1c-1.7-0.7-3.4-1.9-5-3.4c-1.6-1.6-2.5-3.4-2.9-5.5c-0.4-2.1-0.6-5.3-0.6-9.5
		c0-4.2,0.2-7.4,0.6-9.5c0.4-2.1,1.4-4,2.9-5.6c1.6-1.6,3.2-2.7,4.9-3.4c1.7-0.7,3.6-1.1,5.7-1.1c3.7,0,6.8,1,9.4,3.1s4.1,5.1,4.8,9
		h-7.6c-0.4-1.7-1.1-3-2.2-4c-1.1-1-2.5-1.5-4.3-1.5c-2.1,0-3.5,0.5-4.5,1.6c-0.9,1.1-1.5,2.3-1.8,3.8c-0.3,1.5-0.4,4-0.4,7.5
		c0,3.6,0.1,6.1,0.4,7.5c0.3,1.4,0.9,2.6,1.8,3.7c1,1.1,2.5,1.6,4.5,1.6c1.8,0,3.2-0.5,4.3-1.5c1.1-1,1.8-2.3,2.2-4h7.6
		c-0.6,3.9-2.2,6.9-4.8,9S328.3,55.3,324.6,55.3z"/>
	<path d="M366.5,51.1c-1.4,1.4-2.9,2.5-4.6,3.2c-1.7,0.7-3.6,1.1-5.8,1.1c-2.2,0-4.1-0.4-5.8-1.1c-1.7-0.7-3.3-1.8-4.9-3.4
		c-1.6-1.6-2.6-3.4-2.9-5.5c-0.4-2.1-0.6-5.3-0.6-9.5c0-4.2,0.2-7.4,0.6-9.5c0.4-2.1,1.4-4,2.9-5.6c1.6-1.6,3.2-2.7,4.9-3.4
		s3.6-1.1,5.8-1.1c2.1,0,4,0.4,5.7,1.1c1.7,0.7,3.3,1.8,4.9,3.4c1.6,1.6,2.6,3.4,3,5.6c0.4,2.2,0.6,5.3,0.6,9.5
		c0,4.2-0.2,7.4-0.6,9.5C369.4,47.4,368.3,49.3,366.5,51.1z M361,24.9c-1.2-1.4-2.8-2.1-4.8-2.1c-1,0-2,0.2-2.8,0.5
		c-0.8,0.4-1.5,0.9-2.2,1.6c-0.7,0.7-1.1,1.8-1.4,3.1c-0.2,1.3-0.4,3.9-0.4,7.5c0,3.8,0.1,6.3,0.3,7.6c0.2,1.3,0.8,2.5,1.8,3.6
		c1,1.1,2.5,1.7,4.6,1.7c2,0,3.5-0.5,4.5-1.6c1-1.1,1.6-2.4,1.8-3.8c0.3-1.4,0.4-3.9,0.4-7.4c0-3.7-0.1-6.2-0.4-7.5
		C362.2,26.9,361.7,25.8,361,24.9z"/>
	<path d="M397.1,55l-2.3-6.9h-13.7l-2.3,6.9H371l14-38.5h5.9l14,38.5H397.1z M388.1,27.8l-4.9,14h9.6L388.1,27.8z"/>
	<path d="M434.5,55.3c-3.1,0-5.7-1-7.8-3c-2.1-2-3.1-4.6-3.1-7.7c0-2.1,0.5-4,1.6-5.6c1.1-1.6,2.6-3,4.5-4c-1.8-0.9-3.1-2.1-4-3.6
		c-0.9-1.5-1.3-3.2-1.3-5.2c0-2.8,0.9-5.2,2.8-7.2s4.3-2.9,7.3-2.9s5.4,0.9,7.3,2.8c1.9,1.9,2.8,4.3,2.8,7.2c0,4-1.7,6.9-5.2,8.7
		c1.9,1,3.4,2.3,4.5,3.9s1.6,3.5,1.6,5.7c0,3.1-1,5.7-3.1,7.7C440.3,54.3,437.6,55.3,434.5,55.3z M434.5,36.3
		c-2.3,0-4.3,0.8-5.9,2.4c-1.6,1.6-2.3,3.6-2.3,5.9c0,2.3,0.8,4.3,2.3,5.9c1.5,1.6,3.5,2.4,5.9,2.4c2.3,0,4.2-0.8,5.8-2.4
		c1.6-1.6,2.4-3.5,2.4-5.9c0-2.4-0.8-4.4-2.3-5.9C438.9,37.1,436.9,36.3,434.5,36.3z M434.5,18.6c-2.2,0-4,0.7-5.3,2.1
		c-1.4,1.4-2.1,3.2-2.1,5.5c0,2.3,0.7,4.1,2.1,5.5c1.4,1.4,3.2,2.1,5.3,2.1s4-0.7,5.3-2.1c1.4-1.4,2.1-3.2,2.1-5.5
		c0-2.2-0.7-4.1-2.1-5.5C438.4,19.3,436.7,18.6,434.5,18.6z"/>
	<path d="M467.3,35l-9.9,20l-2.8,0l8.9-17.8c-1.3,0.6-2.8,0.9-4.5,0.9c-3.1,0-5.5-1-7.2-3.1c-1.8-2-2.6-4.6-2.6-7.7
		c0-3.2,0.9-5.9,2.7-8c1.8-2.1,4.3-3.2,7.4-3.2c3.2,0,5.7,1,7.5,3c1.8,2,2.7,4.6,2.7,7.8c0,1.3-0.2,2.5-0.5,3.8
		C468.6,32.1,468,33.5,467.3,35z M459.2,18.6c-2.3,0-4.1,0.8-5.4,2.3s-2,3.6-2,6.2c0,2.4,0.6,4.5,1.9,6.1c1.3,1.6,3.1,2.4,5.5,2.4
		c2.2,0,4-0.8,5.4-2.3c1.4-1.6,2.1-3.6,2.1-6.2c0-2.6-0.7-4.7-2-6.2C463.4,19.4,461.5,18.6,459.2,18.6z"/>
	<path d="M333.6,131l-2.3-6.9h-13.7l-2.3,6.9h-7.8l14-38.5h5.9l14,38.5H333.6z M324.6,103.8l-4.9,14h9.6L324.6,103.8z"/>
	<path d="M344.6,131V92.5h7.5v31.8h17.4v6.7H344.6z"/>
	<path d="M388.2,116.5h-7.4V131h-7.5V92.5h14.9c3.9,0,7,1.1,9.3,3.4c2.3,2.3,3.4,5.1,3.4,8.6c0,3.4-1.2,6.2-3.5,8.5
		S392,116.5,388.2,116.5z M387.8,99.2h-7v10.5h7c1.7,0,3-0.5,4.1-1.4c1-0.9,1.5-2.2,1.5-3.8c0-1.6-0.5-2.9-1.5-3.8
		C390.8,99.7,389.5,99.2,387.8,99.2z"/>
	<path d="M442,128.6c-1.8,1.8-4.3,2.8-7.4,2.8c-3.2,0-5.5-0.6-6.7-1.9c-1.2-1.3-2.1-2.4-2.6-3.5c-0.5-1-0.7-2.2-0.7-3.5h2.8
		c0.3,2.1,1,3.7,2.2,4.8c1.2,1.1,2.8,1.6,5.1,1.6c2.2,0,3.9-0.6,5.1-1.7c1.2-1.2,1.9-2.4,2.1-3.8s0.4-3.1,0.4-5
		c0-3.9-0.6-6.6-1.9-8.1s-3-2.2-5.2-2.2c-1.8,0-3.3,0.4-4.5,1.1s-2.1,1.7-2.5,3h-2.4V92.4h18.5v2.4h-16v13.7
		c1.7-1.9,4.1-2.9,7.3-2.9c2.8,0,4.8,0.7,6.2,2.1c1.4,1.4,2.3,2.9,2.7,4.6c0.4,1.7,0.6,3.7,0.6,6c0,2.4-0.2,4.4-0.5,5.9
		C444.1,125.9,443.3,127.3,442,128.6z"/>
	<path d="M455.8,131l-2.8,0l13.6-36.1h-14.6v6h-2.8v-8.5h20.1l0,2.5L455.8,131z"/>
	<path d="M335.4,202.9c-1.5,1.5-3.1,2.6-5,3.3c-1.8,0.7-3.8,1.1-5.9,1.1c-2,0-3.9-0.4-5.7-1.1c-1.7-0.7-3.4-1.9-5-3.4
		c-1.6-1.6-2.5-3.4-2.9-5.5c-0.4-2.1-0.6-5.3-0.6-9.5c0-4.2,0.2-7.4,0.6-9.5c0.4-2.1,1.4-4,2.9-5.6c1.6-1.6,3.2-2.7,4.9-3.4
		s3.6-1.1,5.8-1.1c4.2,0,7.5,1.2,10,3.5c2.4,2.3,3.9,5.3,4.5,8.8h-7.6c-0.9-3.7-3.2-5.6-6.9-5.6c-2,0-3.5,0.5-4.5,1.6
		c-1,1.1-1.6,2.3-1.8,3.7c-0.2,1.3-0.4,3.9-0.4,7.5c0,3.8,0.1,6.3,0.3,7.6c0.2,1.3,0.8,2.5,1.8,3.6c1,1.1,2.5,1.6,4.5,1.6
		c2.2,0,3.8-0.5,4.8-1.6c1-1,1.6-2,1.9-2.9c0.3-0.9,0.4-1.8,0.4-2.8v-1.5h-7v-6.3h14.4v5.6c0,2.8-0.3,5.1-0.8,6.9
		C337.7,199.9,336.7,201.5,335.4,202.9z"/>
	<path d="M364.5,207l-7.5-15.4h-5.4V207h-7.5v-38.5h15.1c3.8,0,6.8,1.1,9.1,3.4c2.2,2.2,3.4,5,3.4,8.4c0,2.5-0.7,4.7-2,6.4
		c-1.3,1.7-3,3-5,3.7l8.6,16.6H364.5z M358.6,175.2h-7.1v10.1h7.1c1.6,0,2.9-0.5,3.9-1.4c1-0.9,1.5-2.1,1.5-3.7
		c0-1.5-0.5-2.8-1.5-3.7C361.6,175.7,360.3,175.2,358.6,175.2z"/>
	<path d="M399.7,207l-15.2-23.6V207H377v-38.5h6.7l15.2,23.5v-23.5h7.5V207H399.7z"/>
	<path d="M434.8,207v-35.4l-7,6.2l0-3.3l7-6.1l2.7,0V207H434.8z"/>
	<path d="M334.1,283l-9.9-17.5l-5,6V283h-7.5v-38.5h7.5v16.7l13.6-16.7h9.1l-12.7,15.3l13.7,23.2H334.1z"/>
	<path d="M370.1,283l-2.3-6.9h-13.7l-2.3,6.9h-7.8l14-38.5h5.9l14,38.5H370.1z M361.2,255.8l-4.9,14h9.6L361.2,255.8z"/>
	<path d="M396,268.5h-7.4V283h-7.5v-38.5H396c3.9,0,7,1.1,9.3,3.4c2.3,2.3,3.4,5.1,3.4,8.6c0,3.4-1.2,6.2-3.5,8.5
		C402.9,267.3,399.9,268.5,396,268.5z M395.6,251.2h-7v10.5h7c1.7,0,3-0.5,4-1.4c1-0.9,1.5-2.2,1.5-3.8c0-1.6-0.5-2.9-1.5-3.8
		S397.3,251.2,395.6,251.2z"/>
	<path d="M434.8,283v-35.4l-7,6.2l0-3.3l7-6.1l2.7,0V283H434.8z"/>
	<path d="M311.7,359v-38.5h7.5V359H311.7z"/>
	<path d="M348.1,359l-15.2-23.6V359h-7.5v-38.5h6.7l15.2,23.5v-23.5h7.5V359H348.1z"/>
	<path d="M385,355.3c-1.2,1.2-2.7,2.1-4.5,2.7c-1.8,0.6-3.7,0.9-5.7,0.9H361v-38.5h13.9c2.1,0,3.9,0.3,5.7,0.9s3.3,1.6,4.8,3.1
		c1.5,1.5,2.4,3.2,2.9,5.1c0.4,1.9,0.7,4.5,0.7,7.5v2.4v2.4c0,3.1-0.2,5.7-0.7,7.7C387.8,351.8,386.7,353.6,385,355.3z M379.8,329.6
		c-0.6-0.8-1.4-1.4-2.3-1.8c-0.9-0.4-2-0.6-3.3-0.6h-5.7v25.1h5.7c2.4,0,4.2-0.6,5.2-1.8c1-1.2,1.6-2.5,1.8-4c0.2-1.4,0.3-3.7,0.3-7
		c0-3.1-0.1-5.3-0.3-6.7C380.9,331.6,380.4,330.4,379.8,329.6z"/>
	<path d="M434.8,359v-35.4l-7,6.2l0-3.3l7-6.1l2.7,0V359H434.8z"/>
	<path d="M326.6,420.5h-7.4V435h-7.5v-38.5h14.9c3.9,0,7,1.1,9.3,3.4c2.3,2.3,3.4,5.1,3.4,8.6c0,3.4-1.2,6.2-3.5,8.5
		C333.6,419.3,330.5,420.5,326.6,420.5z M326.3,403.2h-7v10.5h7c1.7,0,3-0.5,4.1-1.4c1-0.9,1.5-2.2,1.5-3.8c0-1.6-0.5-2.9-1.5-3.8
		C329.3,403.7,328,403.2,326.3,403.2z"/>
	<path d="M357.1,435.3c-4,0-7.4-1.2-10.1-3.7c-2.7-2.5-4-5.7-4-9.8v-25.3h7.5v25c0,2.2,0.6,3.9,1.8,5.2c1.2,1.3,2.8,1.9,4.9,1.9
		c2.1,0,3.7-0.6,4.9-1.9c1.2-1.2,1.8-3,1.8-5.2v-25h7.5v25.3c0,4-1.3,7.3-4,9.8C364.5,434,361.2,435.3,357.1,435.3z"/>
	<path d="M391.9,420.5h-7.4V435H377v-38.5h14.9c3.9,0,7,1.1,9.3,3.4s3.4,5.1,3.4,8.6c0,3.4-1.2,6.2-3.5,8.5S395.7,420.5,391.9,420.5
		z M391.5,403.2h-7v10.5h7c1.7,0,3-0.5,4.1-1.4c1-0.9,1.5-2.2,1.5-3.8c0-1.6-0.5-2.9-1.5-3.8C394.6,403.7,393.2,403.2,391.5,403.2z"
		/>
	<path d="M434.8,435v-35.4l-7,6.2l0-3.3l7-6.1l2.7,0V435H434.8z"/>
</g>
</svg>
